<svg width="22" height="20" viewBox="0 0 22 20" fill="none" xmlns="http://www.w3.org/2000/svg">
<path fill-rule="evenodd" clip-rule="evenodd" d="M11.0006 0.229004C11.2623 0.229004 11.5013 0.377572 11.6171 0.61224L14.4206 6.29266L20.6893 7.20356C20.9483 7.24119 21.1634 7.42258 21.2443 7.67147C21.3251 7.92035 21.2577 8.19356 21.0703 8.37623L16.5342 12.7978L17.605 19.0412C17.6493 19.2991 17.5433 19.5598 17.3315 19.7136C17.1198 19.8674 16.8391 19.8877 16.6075 19.766L11.0006 16.8182L5.39369 19.766C5.16206 19.8877 4.88138 19.8674 4.66967 19.7136C4.45796 19.5598 4.35193 19.2991 4.39617 19.0412L5.46699 12.7978L0.930904 8.37623C0.74351 8.19356 0.676068 7.92035 0.756935 7.67147C0.837802 7.42258 1.05295 7.24119 1.31193 7.20356L7.58064 6.29266L10.3841 0.61224C10.4999 0.377572 10.7389 0.229004 11.0006 0.229004ZM11.0006 2.46995L8.6537 7.22531C8.55355 7.42822 8.35998 7.56886 8.13605 7.6014L2.8882 8.36396L6.68558 12.0655C6.84761 12.2234 6.92155 12.451 6.8833 12.674L5.98686 17.9007L10.6807 15.433C10.881 15.3277 11.1202 15.3277 11.3205 15.433L16.0144 17.9007L15.1179 12.674C15.0797 12.451 15.1536 12.2234 15.3156 12.0655L19.113 8.36396L13.8652 7.6014C13.6412 7.56886 13.4477 7.42822 13.3475 7.22531L11.0006 2.46995Z" fill="#4F5B67"/>
</svg>
