<svg width="22" height="17" viewBox="0 0 22 17" fill="none" xmlns="http://www.w3.org/2000/svg">
<path fill-rule="evenodd" clip-rule="evenodd" d="M1.60417 0.666504C0.71821 0.666504 0 1.38471 0 2.27067V15.104C0 15.99 0.71821 16.7082 1.60417 16.7082H20.3958C21.2818 16.7082 22 15.99 22 15.104V2.27067C22 1.38471 21.2818 0.666504 20.3958 0.666504H1.60417ZM1.375 2.27067C1.375 2.14411 1.4776 2.0415 1.60417 2.0415H20.3958C20.5224 2.0415 20.625 2.14411 20.625 2.27067V3.05127L11.1283 9.46798C11.0508 9.52036 10.9492 9.52036 10.8717 9.46798L1.375 3.05131V2.27067ZM1.375 4.71076V15.104C1.375 15.2306 1.4776 15.3332 1.60417 15.3332H20.3958C20.5224 15.3332 20.625 15.2306 20.625 15.104V4.71072L11.8981 10.6073C11.3555 10.9739 10.6445 10.9739 10.1019 10.6073L1.375 4.71076Z" fill="#4F5B67"/>
</svg>
