<svg width="22" height="22" viewBox="0 0 22 22" fill="none" xmlns="http://www.w3.org/2000/svg">
<path fill-rule="evenodd" clip-rule="evenodd" d="M6.5 1.75C6.5 0.784 7.284 0 8.25 0H13.75C14.716 0 15.5 0.784 15.5 1.75V4H20.25C21.216 4 22 4.784 22 5.75V20.25C22 20.7141 21.8156 21.1592 21.4874 21.4874C21.1592 21.8156 20.7141 22 20.25 22H1.75C1.28587 22 0.840752 21.8156 0.512563 21.4874C0.184374 21.1592 0 20.7141 0 20.25V5.75C0 4.784 0.784 4 1.75 4H6.5V1.75ZM1.5 11.99V20.25C1.5 20.388 1.612 20.5 1.75 20.5H20.25C20.3163 20.5 20.3799 20.4737 20.4268 20.4268C20.4737 20.3799 20.5 20.3163 20.5 20.25V11.99C19.7328 12.6433 18.7577 13.0014 17.75 13H4.25C3.24234 13.0014 2.26723 12.6433 1.5 11.99ZM20.5 8.75C20.5 9.47935 20.2103 10.1788 19.6945 10.6945C19.1788 11.2103 18.4793 11.5 17.75 11.5H4.25C3.52065 11.5 2.82118 11.2103 2.30546 10.6945C1.78973 10.1788 1.5 9.47935 1.5 8.75V5.75C1.5 5.6837 1.52634 5.62011 1.57322 5.57322C1.62011 5.52634 1.6837 5.5 1.75 5.5H20.25C20.3163 5.5 20.3799 5.52634 20.4268 5.57322C20.4737 5.62011 20.5 5.6837 20.5 5.75V8.75ZM14 1.75V4H8V1.75C8 1.6837 8.02634 1.62011 8.07322 1.57322C8.12011 1.52634 8.1837 1.5 8.25 1.5H13.75C13.8163 1.5 13.8799 1.52634 13.9268 1.57322C13.9737 1.62011 14 1.6837 14 1.75Z" fill="#4F5B67"/>
</svg>
