<svg width="22" height="22" viewBox="0 0 18 19" fill="none" xmlns="http://www.w3.org/2000/svg">
<path fill-rule="evenodd" clip-rule="evenodd" d="M8.02953 0.590611C8.58933 0.115629 9.41067 0.11563 9.97047 0.590611L17.4705 6.95425C17.8064 7.23925 18 7.6575 18 8.09801V17.5008C18 18.3292 17.3284 19.0008 16.5 19.0008H10.75C10.3358 19.0008 10 18.665 10 18.2508V12.0008H8V18.2508C8 18.665 7.66421 19.0008 7.25 19.0008H1.5C0.671573 19.0008 0 18.3292 0 17.5008V8.09801C0 7.6575 0.193637 7.23925 0.529534 6.95425L8.02953 0.590611ZM9 1.73438L1.5 8.09801L1.5 17.5008H6.5V11.2508C6.5 10.8366 6.83579 10.5008 7.25 10.5008H10.75C11.1642 10.5008 11.5 10.8366 11.5 11.2508V17.5008H16.5V8.09801L9 1.73438Z" fill="#4F5B67"/>
</svg>
